<svg width="35" height="34" viewBox="0 0 22 21" fill="none" xmlns="http://www.w3.org/2000/svg">
<path d="M5.61214 20.9712C5.29458 20.8806 5.19779 20.7258 4.88324 19.805C4.49702 18.6744 4.39104 18.4227 
4.14987 18.0635C3.58588 17.2233 3.03703 16.8828 1.41742 16.3685C0.32668 16.0222 0.235064 15.9832 0.117817 
15.8151C-0.105063 15.4955 0.000468625 15.027 0.331684 14.8656C0.405821 14.8295 0.928891 14.6565 1.49406 
14.4812C2.67903 14.1135 3.1178 13.8904 3.63428 13.393C4.15297 12.8934 4.35496 12.5226 4.77546 11.2985C5.10233 10.347
 5.16922 10.1991 5.33609 10.0595C5.48714 9.93314 5.57731 9.90097 5.78058 9.90097C5.9947 9.90097 6.06521 9.9292 6.22029 10.077C6.37288 10.2224 6.45559 10.4052 6.69593 11.1283C7.16624 12.5433 7.49388 13.1083 8.13083 13.6027C8.62139 13.9835 8.98026 14.146 10.0826 14.4862C10.6617 14.665 11.2042 14.8446 11.2882 14.8855C11.6223 15.048 11.7199 15.5708 11.4692 15.8548C11.3517 15.9879 11.1531 16.0698 10.2822 16.3447C8.96692 16.7597 8.4764 16.9966 7.98394 17.4546C7.43439 17.9657 7.20719 18.3752 6.77942 19.6257C6.46716 20.5384 6.38616 20.7209 6.24174 20.8367C6.14822 20.9117 6.03799 20.973 5.99677 20.973C5.95556 20.973 5.88836 20.9829 5.84745 20.995C5.80653 21.0071 5.70064 20.9964 5.61214 20.9712ZM17.3302 14.2976C17.1326 14.2142 17.161 14.2696 16.7994 13.2652C16.6487 12.8466 16.477 12.4137 16.4179 12.3034C16.2007 11.8977 15.6465 11.3759 15.2035 11.16C15.1061 11.1125 14.6612 10.955 14.215 10.8101C13.7688 10.6651 13.3541 10.5212 13.2935 10.4903C13.1461 10.4152 13.0442 10.1136 13.1104 9.94856C13.2001 9.72482 13.3634 9.6382 14.1972 9.37203C15.1862 9.05627 15.5002 8.89903 15.9067 8.51574C16.3057 8.1396 16.4526 7.87385 16.8026 6.89516C17.1219 6.00252 17.2253 5.85541 17.5335 5.85541C17.8948 5.85541 17.996 5.98572 18.2888 6.82741C18.6312 7.8118 18.8143 8.15123 19.2026 8.52122C19.5909 8.89122 19.947 9.06572 20.98 9.39202C21.8633 9.67103 22 9.76752 22 10.1118C22 10.4055 21.8456 10.504 20.9089 10.8083C19.8901 11.1392 19.6144 11.2781 19.2092 11.6641C18.8119 12.0427 18.6164 12.3993 18.2903 13.3402C18.0234 14.1102 17.911 14.284 17.643 14.3409C17.5662 14.3573 17.4254 14.3378 17.3302 14.2976ZM8.93599 7.35248C8.87836 7.29756 8.73658 6.98017 8.62092 6.64717C8.12193 5.21045 7.74751 4.83518 6.37554 4.39666C5.49059 4.11381 5.44285 4.09001 5.355 3.8879C5.29851 3.75794 5.29851 3.69441 5.355 3.56445C5.44285 3.36233 5.49059 3.33853 6.37554 3.05568C7.18518 2.7969 7.53961 2.60472 7.87444 2.24293C8.16477 1.92923 8.30056 1.67133 8.59296 0.878312C8.86542 0.139349 8.97192 0 9.26422 0C9.55029 0 9.66338 0.141827 9.8797 0.77185C10.132 1.50681 10.2721 1.79234 10.5343 2.10677C10.8656 2.50394 11.2809 2.73864 12.1831 3.03859C13.0313 3.32058 13.2302 3.44949 13.2302 3.7173C13.2302 3.99037 13.1012 4.07783 12.3505 4.31386C11.4719 4.5901 11.0505 4.79699 10.7146 5.11707C10.3542 5.46051 10.2025 5.73002 9.90777 6.54995C9.76725 6.9409 9.61134 7.30387 9.56131 7.35656C9.43771 7.4867 9.07436 7.48434 8.93599 7.35248Z" fill="url(#paint0_linear_103_11)" 
 fill-opacity="0.30"/>
<defs>
<linearGradient id="paint0_linear_103_11" x1="6.5" y1="6" x2="21.5" y2="13" gradientUnits="userSpaceOnUse">
<stop stop-color="#05E588"/>
<stop offset="1" stop-color="#01A0D5"/>
</linearGradient>
</defs>
</svg>
