<svg width="48" height="46" viewBox="0 0 48 46" fill="none" xmlns="http://www.w3.org/2000/svg">
<g filter="url(#filter0_i_130_26)">
<path d="M13.552 26.8787C13.4703 29.5315 14.1803 32.15 15.5922 34.4031C17.004 36.6562 19.0544 38.4426 21.484 39.5365C23.9136 40.6304 26.6133 40.9827 29.2416 40.5487C31.87 40.1148 34.309 38.9141 36.2502 37.0985C38.1914 35.2829 39.5477 32.934 40.1474 30.3488C40.7472 27.7636 40.5636 25.0582 39.6197 22.5747C38.6759 20.0912 37.0143 17.9411 34.845 16.3965C32.6756 14.8518 30.0961 13.9818 27.4325 13.8966L27.0194 27.3095L13.552 26.8787Z" fill="#46DC85"/>
</g>
<g filter="url(#filter1_i_130_26)">
<path d="M34.8677 20.9254C34.9107 18.2605 34.166 15.6428 32.7276 13.4032C31.2892 11.1637 29.2218 9.40285 26.7868 8.34342C24.3517 7.284 21.6585 6.97357 19.0475 7.45138C16.4366 7.92919 14.0253 9.17379 12.1185 11.0278C10.2118 12.8818 8.89517 15.2619 8.33525 17.8672C7.77532 20.4724 7.99722 23.1858 8.97287 25.6643C9.94852 28.1427 11.6341 30.2748 13.8165 31.7909C15.9989 33.3071 18.58 34.1393 21.2335 34.1822L21.4513 20.7085L34.8677 20.9254Z" fill="#049056"/>
</g>
<defs>
<filter id="filter0_i_130_26" x="13.5457" y="13.8966" width="26.9475" height="30.8327" filterUnits="userSpaceOnUse" color-interpolation-filters="sRGB">
<feFlood flood-opacity="0" result="BackgroundImageFix"/>
<feBlend mode="normal" in="SourceGraphic" in2="BackgroundImageFix" result="shape"/>
<feColorMatrix in="SourceAlpha" type="matrix" values="0 0 0 0 0 0 0 0 0 0 0 0 0 0 0 0 0 0 127 0" result="hardAlpha"/>
<feOffset dy="4"/>
<feGaussianBlur stdDeviation="2.25"/>
<feComposite in2="hardAlpha" operator="arithmetic" k2="-1" k3="1"/>
<feColorMatrix type="matrix" values="0 0 0 0 0 0 0 0 0 0 0 0 0 0 0 0 0 0 0.25 0"/>
<feBlend mode="normal" in2="shape" result="effect1_innerShadow_130_26"/>
</filter>
<filter id="filter1_i_130_26" x="8.03319" y="7.23306" width="27.8362" height="28.2491" filterUnits="userSpaceOnUse" color-interpolation-filters="sRGB">
<feFlood flood-opacity="0" result="BackgroundImageFix"/>
<feBlend mode="normal" in="SourceGraphic" in2="BackgroundImageFix" result="shape"/>
<feColorMatrix in="SourceAlpha" type="matrix" values="0 0 0 0 0 0 0 0 0 0 0 0 0 0 0 0 0 0 127 0" result="hardAlpha"/>
<feOffset dx="1" dy="4"/>
<feGaussianBlur stdDeviation="0.65"/>
<feComposite in2="hardAlpha" operator="arithmetic" k2="-1" k3="1"/>
<feColorMatrix type="matrix" values="0 0 0 0 0 0 0 0 0 0 0 0 0 0 0 0 0 0 0.25 0"/>
<feBlend mode="normal" in2="shape" result="effect1_innerShadow_130_26"/>
</filter>
</defs>
</svg>
