<svg width="11" height="12" viewBox="0 0 11 12" fill="none" xmlns="http://www.w3.org/2000/svg">
<path d="M5.06551 11.8394C4.69143 11.6882 4.41113 11.3909 4.28234 11.0087C4.21262 10.8017 4.20771 10.6881 4.20771 9.28215L4.20771 7.77714L2.89606 7.77714C1.85509 7.77714 1.54062 7.76447 1.3722 7.71576C0.6792 7.5153 0.283055 6.75301 0.4861 6.01065C0.589239 5.63356 0.809022 5.35543 1.15219 5.16773L1.39975 5.03233L2.80373 5.01933L4.20771 5.00633L4.20771 3.483C4.20771 1.97229 4.20843 1.95784 4.29536 1.73958C4.73771 0.628792 6.09233 0.610735 6.57863 1.70914L6.67936 1.93667L6.69073 3.47418L6.7021 5.01169L7.95865 5.01169C8.65322 5.01169 9.30417 5.03042 9.41411 5.05358C9.82783 5.14071 10.1637 5.425 10.3355 5.83353C10.4148 6.02212 10.4326 6.12519 10.4329 6.39833C10.4333 6.69911 10.4203 6.76072 10.3032 7.0159C10.2084 7.22254 10.1228 7.34162 9.98729 7.45527C9.63529 7.75056 9.62756 7.75183 8.08487 7.7676L6.7028 7.78172L6.69108 9.31694L6.67936 10.8522L6.57735 11.0828C6.44591 11.3801 6.21175 11.6401 5.95663 11.7721C5.6982 11.9058 5.30375 11.9356 5.06551 11.8394Z"
 fill="#FCA05A"/>
</svg>
