<svg width="24" height="24" viewBox="0 0 15 17" fill="none" xmlns="http://www.w3.org/2000/svg">
<g filter="url(#filter0_i_39_123)">
<path d="M7.25745 16.9123C7.20253 16.8641 7.15083 16.8029 7.14256 16.7764C7.13429 16.7498 7.08218 16.4576 7.02678 16.1271C6.59917 13.576 6.05042 11.5999 5.57967 10.9158C5.36772 10.6078 4.74411 10.2716 3.6184 9.85842C2.82346 9.56664 1.73715 9.23966 0.711919 8.98356C0.20027 8.85576 0.136588 8.8273 0.0520477 8.68868C-0.0559217 8.51164 0.0106347 8.26383 0.191232 8.17046C0.236984 8.14681 0.485606 8.07457 0.743726 8.00993C2.26503 7.62899 3.85508 7.10247 4.67791 6.70718C5.25278 6.43101 5.50723 6.23038 5.6916 5.90792C6.12234 5.15456 6.67154 3.06017 7.05471 0.709715C7.09706 0.449901 7.15051 0.207723 7.17348 0.171543C7.32689 -0.0701169 7.70844 -0.0531183 7.84572 0.201492C7.86056 0.229021 7.92374 0.553379 7.98611 0.922287C8.42308 3.50668 8.98277 5.49674 9.44467 6.1084C9.8356 6.62608 11.5874 7.32011 14.2122 7.99724C14.9227 8.18053 14.9724 8.21125 14.9948 8.48054C15.0076 8.6346 15.0044 8.64339 14.8971 8.74929C14.7922 8.85276 14.7563 8.8663 14.2421 8.99605C13.117 9.27992 11.7282 9.71066 10.9633 10.013C10.5204 10.188 9.88545 10.5094 9.68908 10.6579C9.58525 10.7365 9.46552 10.8649 9.38648 10.9824C8.9453 11.6384 8.42469 13.5238 8.00003 16.0033C7.93076 16.4078 7.85378 16.778 7.82897 16.8259C7.77092 16.9382 7.64928 17 7.48658 17C7.38319 17 7.3373 16.9824 7.25745 16.9123Z" fill="url(#paint0_linear_39_123)"/>
</g>
<defs>
<filter id="filter0_i_39_123" x="0" y="0" width="15" height="17.1" filterUnits="userSpaceOnUse" color-interpolation-filters="sRGB">
<feFlood flood-opacity="0" result="BackgroundImageFix"/>
<feBlend mode="normal" in="SourceGraphic" in2="BackgroundImageFix" result="shape"/>
<feColorMatrix in="SourceAlpha" type="matrix" values="0 0 0 0 0 0 0 0 0 0 0 0 0 0 0 0 0 0 127 0" result="hardAlpha"/>
<feOffset dy="1"/>
<feGaussianBlur stdDeviation="0.05"/>
<feComposite in2="hardAlpha" operator="arithmetic" k2="-1" k3="1"/>
<feColorMatrix type="matrix" values="0 0 0 0 0 0 0 0 0 0 0 0 0 0 0 0 0 0 0.25 0"/>
<feBlend mode="normal" in2="shape" result="effect1_innerShadow_39_123"/>
</filter>
<linearGradient id="paint0_linear_39_123" x1="11.4541" y1="5.4128" x2="1.43339" y2="13.8247" gradientUnits="userSpaceOnUse">
<stop stop-color="#FFFAFA"/>
<stop offset="1" stop-color="#B7B5B3"/>
</linearGradient>
</defs>
</svg>
